<svg width="213" height="27" viewBox="0 0 213 27" fill="none" xmlns="http://www.w3.org/2000/svg">
<g clip-path="url(#clip0_43_2)">
<path d="M6.76669 15.7663C10.6334 15.7663 12.2152 13.6961 12.7425 13.0922L10.8094 11.8845C10.282 12.4884 8.96375 13.6957 6.76709 13.6957C4.04266 13.6957 2.28541 11.7981 2.28541 9.38294C2.28541 6.96783 4.13102 5.07015 6.76709 5.07015C9.40316 5.07015 10.3699 6.62287 10.7218 7.74418L13.0068 7.48527C12.5674 5.67403 10.9857 3 6.76748 3C2.54929 3 0 6.10582 0 9.38333C0 12.6608 2.37258 15.7663 6.76669 15.7663Z" fill="white"/>
<path d="M14.0068 15.0756H15.7645L22.9706 6.88139V15.0756H25.2556V3H23.498L16.2919 11.1942V3H14.0068V15.0756Z" fill="white"/>
<path d="M26.2556 15.076H33.4617C36.2737 15.076 37.6799 13.0922 37.6799 11.1081C37.6799 9.12403 36.0982 7.62349 33.4617 7.39922H28.5406V5.07015H36.8011V3H26.2556V15.076ZM28.5406 13.0058V9.38294H33.3742C34.3409 9.46899 35.3953 9.90039 35.3953 11.1942C35.3953 12.488 34.4285 13.0054 33.3742 13.0054H28.5406V13.0058Z" fill="white"/>
<path d="M45.4462 15.7663C49.313 15.7663 50.8947 13.6961 51.4221 13.0922L49.4885 11.8845C48.9611 12.4884 47.6429 13.6957 45.4462 13.6957C42.7218 13.6957 40.9646 11.7981 40.9646 9.38294C40.9646 6.96783 42.8102 5.07015 45.4462 5.07015C48.0823 5.07015 49.0491 6.62287 49.4009 7.74418L51.6859 7.48527C51.2465 5.67403 49.6648 3 45.4466 3C41.2284 3 38.6799 6.10504 38.6799 9.38294C38.6799 12.6608 41.0525 15.7659 45.4466 15.7659L45.4462 15.7663Z" fill="white"/>
<path d="M56.3941 15.0756H58.6791V5.07015H63.0732V3H52V5.07015H56.3941V15.0756Z" fill="white"/>
<path d="M64.0736 15.0756H66.3579V10.7628H71.2793C73.9158 10.5385 75.4975 8.95155 75.4975 6.96744V3H64.0732V15.0756H64.0736ZM66.3579 8.69263V5.06977H73.2125V6.881C73.2125 8.1748 72.1582 8.6062 71.191 8.69224H66.3579V8.69263Z" fill="white"/>
<path d="M83.2643 15.7659C87.6584 15.7659 90.0309 12.6609 90.0309 9.38294C90.0309 6.10504 87.6584 3 83.2643 3C78.8701 3 76.4976 6.10504 76.4976 9.38294C76.4976 12.6609 78.8701 15.7659 83.2643 15.7659ZM83.2643 13.6957C80.6282 13.6957 78.7826 11.7981 78.7826 9.38294C78.7826 6.96783 80.6282 5.07015 83.2643 5.07015C85.9003 5.07015 87.7459 6.96783 87.7459 9.38294C87.7459 11.7981 85.9007 13.6957 83.2643 13.6957Z" fill="white"/>
<path d="M93.8426 1.72519H99.9944V0H93.8426V1.72519ZM91.031 15.0946H92.7887L99.9944 6.90039V15.0946H102.279V3.01899H100.522L93.316 11.2132V3.01899H91.031V15.0946Z" fill="white"/>
<path d="M103.279 15.2189H105.566L106.622 6.49127L109.789 13.1242H112.604L115.771 6.49127L116.826 15.2189H119.113L117.618 3H115.155L111.196 11.2911L107.238 3H104.775L103.279 15.2189Z" fill="white"/>
<path d="M120.114 15.2189H122.489L123.842 11.6018L130.116 11.5563L131.461 15.2189H133.837L129.614 3H124.336L120.114 15.2189H120.114ZM124.546 9.41993L126.008 5.09468H127.943L129.439 9.45848L124.546 9.41993Z" fill="white"/>
<path d="M137.651 1.74544H143.809V0H137.651V1.74544ZM134.837 15.2733H136.596L143.809 6.98215V15.2733H146.096V3.05481H144.337L137.124 11.3459V3.05481H134.837V15.2733H134.837Z" fill="white"/>
<path d="M147.096 15.2185H149.383V8.58556H155.893V15.2185H158.18V3H155.893V6.49127H149.383V3H147.096V15.2185Z" fill="white"/>
<path d="M159.18 15.2185H160.939L168.153 6.92734V15.2185H170.44V3H168.68L161.467 11.2911V3H159.18V15.2185H159.18Z" fill="white"/>
<path d="M171.44 15.2185H173.727V8.58556H180.237V15.2185H182.524V3H180.237V6.49127H173.727V3H171.44V15.2185Z" fill="white"/>
<path d="M183.524 15.2185H185.811V5.09468H193.402V3H183.524V15.2185Z" fill="white"/>
<path d="M0 25.8919V21.2988H0.842928V23.2432H2.99896V21.2988H3.84425V25.8919H2.99896V23.9409H0.842928V25.8919H0Z" fill="white"/>
<path d="M6.9571 25.8919H6.05737L7.6955 21.2988H8.73604L10.3765 25.8919H9.47681L8.23392 22.2407H8.19763L6.9571 25.8919ZM6.98668 24.0912H9.44052V24.7597H6.98668V24.0912Z" fill="white"/>
<path d="M12.2873 27.0001V25.2126H12.5985C12.703 25.1305 12.8008 25.0145 12.8915 24.865C12.9823 24.7154 13.0596 24.5106 13.1235 24.2506C13.187 23.9905 13.2312 23.6541 13.2552 23.2414L13.3779 21.2993H16.352V25.213H16.8699V26.9958H16.0609V25.8924H13.0959V27.0005H12.2869L12.2873 27.0001ZM13.5802 25.2126H15.5434V21.9966H14.1368L14.0642 23.2414C14.0445 23.554 14.0126 23.8336 13.9688 24.08C13.925 24.3269 13.8694 24.5437 13.8031 24.7314C13.7364 24.9191 13.6623 25.0795 13.5802 25.2126Z" fill="white"/>
<path d="M19.1533 25.8919V21.2988H22.1799V21.9961H19.9962V23.2432H22.0229V23.9405H19.9962V25.1942H22.198V25.8916H19.1533V25.8919Z" fill="white"/>
<path d="M24.3613 25.8919L25.8381 23.4788L24.4453 21.2988H25.4792L26.5789 23.2389H28.458L29.5396 21.2988H30.5687L29.1964 23.4764L30.6551 25.8919H29.6575L28.5783 24.0102H26.4495L25.3498 25.8919H24.3613ZM27.9216 21.2988V25.8919H27.0944V21.2988H27.9216Z" fill="white"/>
<path d="M32.8928 25.8919V21.2988H33.7357V23.2432H35.8918V21.2988H36.7371V25.8919H35.8918V23.9409H33.7357V25.8919H32.8928Z" fill="white"/>
<path d="M43.4103 23.5956C43.4103 24.0905 43.3168 24.5141 43.1299 24.8661C42.9429 25.218 42.6885 25.4878 42.3666 25.6747C42.0447 25.8616 41.6799 25.9551 41.2724 25.9551C40.865 25.9551 40.5001 25.8612 40.1782 25.6736C39.8564 25.4859 39.6019 25.2161 39.415 24.8641C39.228 24.5121 39.1345 24.0893 39.1345 23.596C39.1345 23.1027 39.228 22.6775 39.415 22.3256C39.6019 21.9736 39.8564 21.7042 40.1782 21.5169C40.5001 21.33 40.8646 21.2366 41.2724 21.2366C41.6803 21.2366 42.0443 21.33 42.3666 21.5169C42.6885 21.7038 42.9429 21.9732 43.1299 22.3256C43.3168 22.6775 43.4103 23.1012 43.4103 23.596V23.5956ZM42.5626 23.5956C42.5626 23.2472 42.5078 22.9532 42.3978 22.713C42.2881 22.4731 42.1362 22.2913 41.9422 22.1679C41.7481 22.0445 41.5249 21.9829 41.272 21.9829C41.0192 21.9829 40.7955 22.0445 40.6019 22.1679C40.4078 22.2913 40.2559 22.4727 40.1463 22.713C40.0366 22.9528 39.9814 23.2472 39.9814 23.5956C39.9814 23.9441 40.0362 24.238 40.1463 24.4783C40.2559 24.7181 40.4078 24.8999 40.6019 25.0234C40.7959 25.1468 41.0192 25.2083 41.272 25.2083C41.5249 25.2083 41.7485 25.1468 41.9422 25.0234C42.1359 24.8999 42.2877 24.7185 42.3978 24.4783C42.5074 24.2384 42.5626 23.9441 42.5626 23.5956Z" fill="white"/>
<path d="M49.7928 22.8484H48.9432C48.9191 22.711 48.8741 22.5887 48.809 22.4816C48.744 22.3746 48.6627 22.2839 48.5661 22.2091C48.469 22.1344 48.359 22.0779 48.2355 22.0397C48.1121 22.0016 47.9791 21.9825 47.8367 21.9825C47.5839 21.9825 47.3595 22.0448 47.1642 22.1698C46.969 22.2948 46.8159 22.477 46.7051 22.7168C46.5946 22.9567 46.5394 23.2494 46.5394 23.5948C46.5394 23.9401 46.595 24.2419 46.7063 24.4817C46.8175 24.7216 46.9705 24.9026 47.1654 25.0245C47.3598 25.1463 47.5831 25.2071 47.8344 25.2071C47.9736 25.2071 48.1042 25.1888 48.2264 25.1522C48.3483 25.1156 48.4584 25.0615 48.5558 24.9894C48.6536 24.9178 48.7361 24.8294 48.8035 24.7247C48.871 24.6199 48.9175 24.5004 48.9432 24.3657L49.7928 24.3704C49.7608 24.5888 49.6926 24.7936 49.5873 24.9848C49.482 25.1763 49.3447 25.3449 49.1751 25.4905C49.0055 25.6361 48.8071 25.7498 48.5799 25.8316C48.3527 25.913 48.1006 25.9538 47.8233 25.9538C47.4143 25.9538 47.0494 25.8604 46.7283 25.6735C46.4073 25.4866 46.1544 25.2168 45.9694 24.8641C45.7844 24.5113 45.6921 24.0881 45.6921 23.5948C45.6921 23.1015 45.7852 22.6763 45.9714 22.3244C46.1576 21.9724 46.4116 21.703 46.7327 21.5157C47.0538 21.3288 47.4174 21.2354 47.8233 21.2354C48.0825 21.2354 48.3231 21.2712 48.5459 21.3428C48.7688 21.4145 48.9672 21.5196 49.1412 21.6578C49.3155 21.796 49.4587 21.965 49.5719 22.1647C49.6847 22.3645 49.7585 22.5918 49.7936 22.8476L49.7928 22.8484Z" fill="white"/>
<path d="M51.9626 21.9966V21.2993H55.6752V21.9966H54.237V25.8924H53.4008V21.9966H51.9626Z" fill="white"/>
<path d="M58.5581 23.0727H59.7395C60.0953 23.0727 60.401 23.1299 60.6562 23.2444C60.9114 23.3589 61.107 23.52 61.2435 23.7276C61.38 23.9351 61.4478 24.18 61.4478 24.4611C61.4478 24.7422 61.3796 24.9922 61.2435 25.2067C61.107 25.4212 60.9114 25.589 60.6562 25.7101C60.401 25.8312 60.0953 25.8919 59.7395 25.8919H57.9968V21.2988H58.8421V25.2102H59.7395C59.9272 25.2102 60.0862 25.1752 60.2168 25.1047C60.3469 25.0346 60.4459 24.9416 60.5134 24.8267C60.5808 24.7115 60.6144 24.5869 60.6144 24.4521C60.6144 24.2579 60.539 24.092 60.3883 23.9553C60.2377 23.8187 60.0215 23.7502 59.7395 23.7502H58.5581V23.0727Z" fill="white"/>
<path d="M69.8459 25.8919L68.3147 23.8849H67.9013V25.8919H67.0583V21.2988H67.9013V23.1872H68.1127L69.7666 21.2988H70.8048L68.9667 23.3935L70.8845 25.8919H69.8463H69.8459Z" fill="white"/>
<path d="M73.6514 25.8919H72.7517L74.3898 21.2988H75.4304L77.0709 25.8919H76.1711L74.9283 22.2407H74.892L73.6514 25.8919ZM73.681 24.0912H76.1349V24.7597H73.681V24.0912Z" fill="white"/>
<path d="M79.4225 21.2988H80.2473V22.797C80.2473 22.9913 80.2816 23.1455 80.3506 23.2592C80.4197 23.3729 80.5222 23.4542 80.6583 23.5037C80.7948 23.5531 80.9644 23.5777 81.1671 23.5777C81.2579 23.5777 81.3561 23.5742 81.4614 23.5675C81.5667 23.5609 81.6732 23.5512 81.7805 23.5383C81.8882 23.5255 81.9911 23.5099 82.0894 23.4912C82.188 23.4725 82.2755 23.4519 82.3528 23.4297V24.1072C82.2755 24.1309 82.1891 24.1527 82.0937 24.1722C81.9982 24.1917 81.8977 24.208 81.7915 24.2217C81.6854 24.2353 81.5793 24.2454 81.4736 24.2532C81.3675 24.2606 81.2654 24.2645 81.1667 24.2645C80.811 24.2645 80.5021 24.2139 80.241 24.113C79.9799 24.0122 79.7779 23.8541 79.6355 23.6388C79.4931 23.4235 79.4221 23.1432 79.4221 22.7978V21.2996L79.4225 21.2988ZM82.2148 21.2988H83.0439V25.8919H82.2148V21.2988Z" fill="white"/>
<path d="M85.6687 25.8919V21.2988H88.6953V21.9961H86.5116V23.2432H88.5383V23.9405H86.5116V25.1942H88.7134V25.8916H85.6687V25.8919Z" fill="white"/>
<path d="M95.1384 22.8484H94.2888C94.2647 22.711 94.2197 22.5887 94.1546 22.4816C94.0896 22.3746 94.0083 22.2839 93.9117 22.2091C93.8146 22.1344 93.7046 22.0779 93.5811 22.0397C93.4577 22.0016 93.3247 21.9825 93.1823 21.9825C92.9295 21.9825 92.7051 22.0448 92.5098 22.1698C92.3146 22.2948 92.1615 22.477 92.0507 22.7168C91.9402 22.9567 91.885 23.2494 91.885 23.5948C91.885 23.9401 91.9406 24.2419 92.0519 24.4817C92.1631 24.7216 92.3161 24.9026 92.511 25.0245C92.7055 25.1463 92.9287 25.2071 93.18 25.2071C93.3192 25.2071 93.4498 25.1888 93.5721 25.1522C93.6939 25.1156 93.804 25.0615 93.9014 24.9894C93.9992 24.9178 94.0817 24.8294 94.1491 24.7247C94.2166 24.6199 94.2631 24.5004 94.2888 24.3657L95.1384 24.3704C95.1064 24.5888 95.0382 24.7936 94.9329 24.9848C94.8276 25.1763 94.6899 25.3449 94.5203 25.4905C94.3507 25.6361 94.1523 25.7498 93.9251 25.8316C93.6979 25.913 93.4458 25.9538 93.1685 25.9538C92.7595 25.9538 92.3946 25.8604 92.0736 25.6735C91.7525 25.4866 91.4996 25.2168 91.3146 24.8641C91.1297 24.5113 91.0374 24.0881 91.0374 23.5948C91.0374 23.1015 91.1304 22.6763 91.317 22.3244C91.5032 21.9724 91.7572 21.703 92.0783 21.5157C92.3994 21.3288 92.763 21.2354 93.1689 21.2354C93.4281 21.2354 93.6687 21.2712 93.8916 21.3428C94.114 21.4145 94.3124 21.5196 94.4868 21.6578C94.6611 21.796 94.8043 21.965 94.9175 22.1647C95.0303 22.3645 95.1041 22.5918 95.1392 22.8476L95.1384 22.8484Z" fill="white"/>
<path d="M97.3083 21.9966V21.2993H101.021V21.9966H99.5827V25.8924H98.7465V21.9966H97.3083Z" fill="white"/>
<path d="M103.334 25.8919V21.2988H105.115C105.451 21.2988 105.731 21.3506 105.954 21.4546C106.178 21.5585 106.345 21.7002 106.457 21.8797C106.568 22.0592 106.623 22.2625 106.623 22.4898C106.623 22.6767 106.587 22.8364 106.515 22.9687C106.442 23.1011 106.344 23.2082 106.221 23.2907C106.099 23.3729 105.962 23.4321 105.81 23.4679V23.5127C105.975 23.5216 106.134 23.5714 106.286 23.6618C106.438 23.7521 106.563 23.8798 106.66 24.0441C106.757 24.2084 106.806 24.4074 106.806 24.6406C106.806 24.8738 106.747 25.0918 106.631 25.2807C106.514 25.4699 106.338 25.619 106.104 25.728C105.869 25.837 105.573 25.8916 105.217 25.8916H103.334V25.8919ZM104.177 23.2522H105.011C105.156 23.2522 105.287 23.2257 105.404 23.1724C105.521 23.1194 105.612 23.0439 105.68 22.9458C105.747 22.8476 105.781 22.7316 105.781 22.5969C105.781 22.419 105.718 22.2726 105.591 22.1573C105.465 22.0421 105.277 21.9845 105.029 21.9845H104.177V23.2518V23.2522ZM104.177 25.1966H105.083C105.389 25.1966 105.61 25.1386 105.745 25.0229C105.881 24.9069 105.949 24.7578 105.949 24.5756C105.949 24.4397 105.915 24.3167 105.846 24.2065C105.778 24.0967 105.681 24.0098 105.556 23.9464C105.43 23.8829 105.28 23.851 105.106 23.851H104.176V25.1966H104.177Z" fill="white"/>
<path d="M113.297 23.5956C113.297 24.0905 113.204 24.5141 113.017 24.8661C112.83 25.218 112.575 25.4878 112.253 25.6747C111.931 25.8616 111.567 25.9551 111.159 25.9551C110.752 25.9551 110.387 25.8612 110.065 25.6736C109.743 25.4859 109.489 25.2161 109.302 24.8641C109.115 24.5121 109.021 24.0893 109.021 23.596C109.021 23.1027 109.115 22.6775 109.302 22.3256C109.489 21.9736 109.743 21.7042 110.065 21.5169C110.387 21.33 110.752 21.2366 111.159 21.2366C111.567 21.2366 111.931 21.33 112.253 21.5169C112.575 21.7038 112.83 21.9732 113.017 22.3256C113.204 22.6779 113.297 23.1012 113.297 23.596V23.5956ZM112.449 23.5956C112.449 23.2472 112.395 22.9532 112.284 22.713C112.175 22.4731 112.023 22.2913 111.829 22.1679C111.635 22.0445 111.412 21.9829 111.159 21.9829C110.906 21.9829 110.682 22.0445 110.489 22.1679C110.295 22.2913 110.143 22.4727 110.033 22.713C109.923 22.9528 109.868 23.2472 109.868 23.5956C109.868 23.9441 109.923 24.238 110.033 24.4783C110.143 24.7181 110.295 24.8999 110.489 25.0234C110.682 25.1468 110.906 25.2083 111.159 25.2083C111.412 25.2083 111.635 25.1468 111.829 25.0234C112.023 24.8999 112.174 24.7185 112.284 24.4783C112.394 24.2384 112.449 23.9441 112.449 23.5956Z" fill="white"/>
<path d="M118.884 25.8919V21.2988H120.629C120.986 21.2988 121.287 21.3646 121.53 21.4962C121.773 21.6278 121.957 21.8085 122.082 22.0378C122.207 22.2675 122.27 22.528 122.27 22.8196C122.27 23.1112 122.207 23.376 122.081 23.6045C121.955 23.8335 121.77 24.013 121.524 24.1438C121.279 24.2746 120.977 24.34 120.618 24.34H119.462V23.6559H120.504C120.713 23.6559 120.885 23.6201 121.018 23.5485C121.151 23.4768 121.25 23.3779 121.315 23.2526C121.379 23.1268 121.411 22.9828 121.411 22.8196C121.411 22.6565 121.379 22.5132 121.315 22.389C121.25 22.2648 121.151 22.1682 121.017 22.0985C120.883 22.0289 120.71 21.9942 120.5 21.9942H119.728V25.8919H118.885H118.884Z" fill="white"/>
<path d="M124.601 25.8919V21.2988H127.627V21.9961H125.444V23.2432H127.47V23.9405H125.444V25.1942H127.645V25.8916H124.601V25.8919Z" fill="white"/>
<path d="M131.712 25.9546C131.385 25.9546 131.095 25.8993 130.841 25.7887C130.587 25.6781 130.387 25.524 130.24 25.3266C130.093 25.1292 130.015 24.9014 130.006 24.6425H130.86C130.868 24.7667 130.91 24.8745 130.985 24.9664C131.061 25.0583 131.162 25.1299 131.287 25.1806C131.413 25.2316 131.554 25.2569 131.71 25.2569C131.876 25.2569 132.024 25.2281 132.153 25.1704C132.281 25.1128 132.382 25.0326 132.455 24.9294C132.528 24.8262 132.563 24.7075 132.562 24.5728C132.563 24.4338 132.527 24.3111 132.453 24.2048C132.379 24.0986 132.272 24.0156 132.132 23.9561C131.991 23.8961 131.823 23.8665 131.626 23.8665H131.214V23.2253H131.626C131.788 23.2253 131.93 23.1976 132.052 23.1423C132.174 23.087 132.27 23.0088 132.339 22.9079C132.409 22.8071 132.443 22.6899 132.442 22.5567C132.443 22.4267 132.414 22.3134 132.354 22.2168C132.294 22.1203 132.21 22.0451 132.102 21.9914C131.993 21.9377 131.867 21.9108 131.721 21.9108C131.576 21.9108 131.447 21.9361 131.326 21.9871C131.205 22.0381 131.107 22.1102 131.033 22.2036C130.959 22.2971 130.919 22.408 130.915 22.5365H130.104C130.11 22.2795 130.185 22.0533 130.33 21.8583C130.475 21.6632 130.668 21.5106 130.911 21.4008C131.153 21.291 131.425 21.2361 131.726 21.2361C132.028 21.2361 132.307 21.2933 132.537 21.4078C132.766 21.5223 132.944 21.6757 133.07 21.8688C133.195 22.0615 133.258 22.2749 133.258 22.5081C133.26 22.7666 133.183 22.9835 133.027 23.1587C132.872 23.3335 132.669 23.448 132.417 23.5017V23.5375C132.744 23.5823 132.995 23.7014 133.17 23.8953C133.346 24.0888 133.432 24.3294 133.431 24.6164C133.431 24.8734 133.357 25.1035 133.209 25.3059C133.062 25.5084 132.858 25.6672 132.6 25.7825C132.342 25.8977 132.046 25.9554 131.713 25.9554L131.712 25.9546Z" fill="white"/>
<path d="M136.272 25.9547V25.2551H136.538C136.658 25.2551 136.756 25.2379 136.833 25.2037C136.911 25.1694 136.973 25.12 137.021 25.0557C137.069 24.9915 137.108 24.9167 137.14 24.8315L137.201 24.6769L135.538 21.2993H136.42L137.579 23.7573L138.58 21.2993H139.448L137.844 25.0448C137.77 25.2064 137.684 25.3563 137.587 25.4945C137.49 25.6327 137.364 25.7441 137.209 25.8286C137.054 25.9131 136.852 25.9551 136.603 25.9551H136.272L136.272 25.9547Z" fill="white"/>
<path d="M141.348 25.8919V25.2012L141.48 25.1946C141.658 25.1841 141.8 25.1207 141.906 25.0038C142.011 24.8874 142.089 24.6998 142.14 24.4409C142.19 24.1823 142.224 23.8354 142.241 23.4001L142.318 21.2988H145.367V25.8919H144.542V21.9829H143.104L143.031 23.6583C143.01 24.1605 142.954 24.5771 142.865 24.9073C142.774 25.2378 142.627 25.4843 142.424 25.6474C142.22 25.8106 141.937 25.8919 141.575 25.8919H141.348H141.348Z" fill="white"/>
<path d="M148.455 23.0727H149.636C149.992 23.0727 150.298 23.1299 150.553 23.2444C150.808 23.3589 151.004 23.52 151.14 23.7276C151.277 23.9351 151.345 24.18 151.345 24.4611C151.345 24.7422 151.277 24.9922 151.14 25.2067C151.004 25.4212 150.808 25.589 150.553 25.7101C150.298 25.8312 149.992 25.8919 149.636 25.8919H147.894V21.2988H148.739V25.2102H149.636C149.824 25.2102 149.983 25.1752 150.114 25.1047C150.244 25.0346 150.343 24.9416 150.41 24.8267C150.478 24.7115 150.511 24.5869 150.511 24.4521C150.511 24.2579 150.436 24.092 150.285 23.9553C150.135 23.8187 149.918 23.7502 149.637 23.7502H148.455V23.0727H148.455Z" fill="white"/>
<path d="M153.308 21.9966V21.2993H157.021V21.9966H155.583V25.8924H154.746V21.9966H153.308Z" fill="white"/>
<path d="M159.368 25.8919H158.468L160.106 21.2988H161.147L162.787 25.8919H161.887L160.645 22.2407H160.608L159.368 25.8919ZM159.397 24.0912H161.851V24.7597H159.397V24.0912Z" fill="white"/>
<path d="M164.232 21.9966V21.2993H167.945V21.9966H166.507V25.8924H165.671V21.9966H164.232Z" fill="white"/>
</g>
<defs>
<clipPath id="clip0_43_2">
<rect width="213" height="27" fill="white"/>
</clipPath>
</defs>
</svg>
