<svg width="236" height="221" viewBox="0 0 236 221" fill="none" xmlns="http://www.w3.org/2000/svg">
<path fill-rule="evenodd" clip-rule="evenodd" d="M35.2896 135.814L59.5512 135.814L59.5512 133.608L35.2896 133.608L35.2896 135.814Z" fill="white"/>
<path fill-rule="evenodd" clip-rule="evenodd" d="M176.448 135.814L200.71 135.814L200.71 133.608L176.448 133.608L176.448 135.814Z" fill="white"/>
<path fill-rule="evenodd" clip-rule="evenodd" d="M225.896 220.748L176.82 170.939L177.605 170.165L226.681 219.974L225.896 220.748Z" fill="white"/>
<path fill-rule="evenodd" clip-rule="evenodd" d="M14.4343 214.973L58.4587 170.939L59.2385 171.719L15.2141 215.753L14.4343 214.973Z" fill="white"/>
<path fill-rule="evenodd" clip-rule="evenodd" d="M176.439 170.558V83.9538C176.439 51.6721 150.275 25.5026 118 25.5026C85.7253 25.5026 59.5615 51.6721 59.5615 83.9538V170.558H176.439ZM118 24.3995C85.1163 24.3995 58.4587 51.0629 58.4587 83.9538V171.661H177.541V83.9538C177.541 51.0629 150.884 24.3995 118 24.3995Z" fill="white"/>
<path fill-rule="evenodd" clip-rule="evenodd" d="M52.1335 84.3166C52.1335 47.7312 81.7854 18.0729 118.363 18.0729C154.539 18.0729 183.866 47.4062 183.866 83.5907V177.436H182.764V83.5907C182.764 48.0154 153.93 19.1759 118.363 19.1759C82.3945 19.1759 53.2363 48.3404 53.2363 84.3166V177.436H52.1335V84.3166Z" fill="white"/>
<path fill-rule="evenodd" clip-rule="evenodd" d="M46.3599 83.9538C46.3599 44.3794 78.4342 12.298 118 12.298C157.566 12.298 189.64 44.3793 189.64 83.9537V183.211H188.537V83.9537C188.537 44.9885 156.957 13.401 118 13.401C79.0433 13.401 47.4627 44.9886 47.4627 83.9538V183.211H46.3599V83.9538Z" fill="white"/>
<path fill-rule="evenodd" clip-rule="evenodd" d="M40.5862 83.9536C40.5862 41.1898 75.2455 6.52295 118 6.52295C160.754 6.52295 195.414 41.1898 195.414 83.9536V188.986H194.311V83.9536C194.311 41.799 160.145 7.62599 118 7.62599C75.8546 7.62599 41.689 41.799 41.689 83.9536V188.986H40.5862V83.9536Z" fill="white"/>
<path fill-rule="evenodd" clip-rule="evenodd" d="M34.8125 83.9538C34.8125 38.0005 72.0568 0.748047 118 0.748047C163.943 0.748047 201.187 38.0005 201.187 83.9537V194.761L200.085 193.761V83.9537C200.085 38.6097 163.334 1.85109 118 1.85109C72.6659 1.85109 35.9153 38.6097 35.9153 83.9538V194.761H34.8125V83.9538Z" fill="white"/>
<path fill-rule="evenodd" clip-rule="evenodd" d="M100.094 1.95251L104.192 15.9591L106.27 15.3508L102.172 1.34422L100.094 1.95251Z" fill="white"/>
<path fill-rule="evenodd" clip-rule="evenodd" d="M55.0193 28.5042L73.9308 46.653L75.4298 45.0904L56.5183 26.9415L55.0193 28.5042Z" fill="white"/>
<path fill-rule="evenodd" clip-rule="evenodd" d="M39.6846 55.5278L45.5397 57.5513L46.2468 55.5044L40.3916 53.481L39.6846 55.5278Z" fill="white"/>
<path fill-rule="evenodd" clip-rule="evenodd" d="M45.5396 57.5511L51.3947 59.5746L52.1017 57.5277L46.2466 55.5043L45.5396 57.5511Z" fill="white"/>
<path fill-rule="evenodd" clip-rule="evenodd" d="M51.395 59.5747L57.2502 61.5981L57.9572 59.5513L52.1021 57.5278L51.395 59.5747Z" fill="white"/>
<path fill-rule="evenodd" clip-rule="evenodd" d="M57.25 61.5981L63.1051 63.6216L63.8122 61.5747L57.9571 59.5513L57.25 61.5981Z" fill="white"/>
<path fill-rule="evenodd" clip-rule="evenodd" d="M38.9773 57.5747L44.8324 59.5981L45.5395 57.5513L39.6844 55.5278L38.9773 57.5747Z" fill="white"/>
<path fill-rule="evenodd" clip-rule="evenodd" d="M44.8325 59.5981L50.6877 61.6216L51.3947 59.5747L45.5396 57.5513L44.8325 59.5981Z" fill="white"/>
<path fill-rule="evenodd" clip-rule="evenodd" d="M50.688 61.6216L56.5431 63.645L57.2502 61.5981L51.395 59.5747L50.688 61.6216Z" fill="white"/>
<path fill-rule="evenodd" clip-rule="evenodd" d="M56.543 63.645L62.3981 65.6685L63.1052 63.6216L57.25 61.5981L56.543 63.645Z" fill="white"/>
<path fill-rule="evenodd" clip-rule="evenodd" d="M38.4917 59.5385L44.3385 61.4736L45.03 59.3833L39.1833 57.4481L38.4917 59.5385Z" fill="white"/>
<path fill-rule="evenodd" clip-rule="evenodd" d="M44.3384 61.4735L50.1851 63.4087L50.8767 61.3183L45.0299 59.3832L44.3384 61.4735Z" fill="white"/>
<path fill-rule="evenodd" clip-rule="evenodd" d="M50.1853 63.4087L56.0321 65.3438L56.7236 63.2535L50.8769 61.3183L50.1853 63.4087Z" fill="white"/>
<path fill-rule="evenodd" clip-rule="evenodd" d="M56.032 65.3439L61.8787 67.279L62.5703 65.1887L56.7235 63.2535L56.032 65.3439Z" fill="white"/>
<path fill-rule="evenodd" clip-rule="evenodd" d="M37.8003 61.6288L43.6471 63.5639L44.3386 61.4736L38.4918 59.5384L37.8003 61.6288Z" fill="white"/>
<path fill-rule="evenodd" clip-rule="evenodd" d="M43.647 63.564L49.4937 65.4991L50.1853 63.4088L44.3385 61.4736L43.647 63.564Z" fill="white"/>
<path fill-rule="evenodd" clip-rule="evenodd" d="M49.4939 65.4991L55.3407 67.4343L56.0322 65.3439L50.1855 63.4088L49.4939 65.4991Z" fill="white"/>
<path fill-rule="evenodd" clip-rule="evenodd" d="M55.3406 67.4343L61.1873 69.3695L61.8789 67.2791L56.0321 65.344L55.3406 67.4343Z" fill="white"/>
<path fill-rule="evenodd" clip-rule="evenodd" d="M195.895 55.321L190.04 57.3445L189.333 55.2976L195.188 53.2742L195.895 55.321Z" fill="white"/>
<path fill-rule="evenodd" clip-rule="evenodd" d="M190.04 57.3445L184.185 59.3679L183.478 57.321L189.333 55.2976L190.04 57.3445Z" fill="white"/>
<path fill-rule="evenodd" clip-rule="evenodd" d="M184.185 59.368L178.33 61.3915L177.623 59.3446L183.478 57.3212L184.185 59.368Z" fill="white"/>
<path fill-rule="evenodd" clip-rule="evenodd" d="M178.33 61.3914L172.474 63.4148L171.767 61.3679L177.623 59.3445L178.33 61.3914Z" fill="white"/>
<path fill-rule="evenodd" clip-rule="evenodd" d="M196.602 57.3679L190.747 59.3914L190.04 57.3445L195.895 55.321L196.602 57.3679Z" fill="white"/>
<path fill-rule="evenodd" clip-rule="evenodd" d="M190.747 59.3915L184.892 61.4149L184.185 59.368L190.04 57.3446L190.747 59.3915Z" fill="white"/>
<path fill-rule="evenodd" clip-rule="evenodd" d="M184.892 61.4148L179.037 63.4382L178.33 61.3914L184.185 59.3679L184.892 61.4148Z" fill="white"/>
<path fill-rule="evenodd" clip-rule="evenodd" d="M179.037 63.4384L173.181 65.4618L172.474 63.4149L178.33 61.3915L179.037 63.4384Z" fill="white"/>
<path fill-rule="evenodd" clip-rule="evenodd" d="M197.211 59.1937L191.315 61.1195L190.643 59.0609L196.539 57.1351L197.211 59.1937Z" fill="white"/>
<path fill-rule="evenodd" clip-rule="evenodd" d="M191.315 61.1196L185.419 63.0454L184.747 60.9868L190.643 59.061L191.315 61.1196Z" fill="white"/>
<path fill-rule="evenodd" clip-rule="evenodd" d="M185.419 63.0455L179.523 64.9713L178.851 62.9127L184.747 60.9869L185.419 63.0455Z" fill="white"/>
<path fill-rule="evenodd" clip-rule="evenodd" d="M179.523 64.9711L173.627 66.8969L172.955 64.8382L178.851 62.9124L179.523 64.9711Z" fill="white"/>
<path fill-rule="evenodd" clip-rule="evenodd" d="M197.884 61.2524L191.988 63.1782L191.316 61.1196L197.212 59.1938L197.884 61.2524Z" fill="white"/>
<path fill-rule="evenodd" clip-rule="evenodd" d="M191.988 63.1782L186.092 65.104L185.419 63.0454L191.315 61.1196L191.988 63.1782Z" fill="white"/>
<path fill-rule="evenodd" clip-rule="evenodd" d="M186.092 65.1041L180.196 67.0299L179.523 64.9713L185.419 63.0455L186.092 65.1041Z" fill="white"/>
<path fill-rule="evenodd" clip-rule="evenodd" d="M180.196 67.0299L174.3 68.9557L173.627 66.8971L179.523 64.9713L180.196 67.0299Z" fill="white"/>
<path fill-rule="evenodd" clip-rule="evenodd" d="M177.106 91.8218L200.666 88.3339L200.349 86.1916L176.789 89.6795L177.106 91.8218Z" fill="white"/>
<path fill-rule="evenodd" clip-rule="evenodd" d="M58.9236 91.8218L35.3637 88.3339L35.6808 86.1916L59.2406 89.6795L58.9236 91.8218Z" fill="white"/>
<path fill-rule="evenodd" clip-rule="evenodd" d="M166.296 16.5697L151.791 36.4327L153.539 37.7101L168.045 17.8471L166.296 16.5697Z" fill="white"/>
<path fill-rule="evenodd" clip-rule="evenodd" d="M137.745 1.86426L130.63 28.4247L132.721 28.9852L139.836 2.42476L137.745 1.86426Z" fill="white"/>
<path fill-rule="evenodd" clip-rule="evenodd" d="M10.1039 37.393L43.3027 49.6648L42.9204 50.6995L9.72163 38.4277L10.1039 37.393Z" fill="white"/>
<path fill-rule="evenodd" clip-rule="evenodd" d="M9.5271e-05 110.302L35.364 110.302L35.364 111.405L9.53674e-05 111.405L9.5271e-05 110.302Z" fill="white"/>
<path fill-rule="evenodd" clip-rule="evenodd" d="M200.636 110.302L236 110.302L236 111.405L200.636 111.405L200.636 110.302Z" fill="white"/>
<path fill-rule="evenodd" clip-rule="evenodd" d="M191.975 46.7774L230.948 34.5056L231.279 35.5577L192.307 47.8295L191.975 46.7774Z" fill="white"/>
<path fill-rule="evenodd" clip-rule="evenodd" d="M59.279 170.559H177.082L209 202.5L208.715 202.775L176.621 171.662H59.7363L27.9603 203.489L27.1799 202.71L59.279 170.559Z" fill="white"/>
</svg>
