<svg width="269" height="162" viewBox="0 0 269 162" fill="none" xmlns="http://www.w3.org/2000/svg">
<path d="M96.988 142.572C94.0783 132.55 88.841 106.105 91.1687 80.5C93.4964 54.8952 112.506 24.5703 121.72 12.6085" stroke="white"/>
<path d="M25.2168 149.361C20.3674 136.915 12.1234 103.292 17.9427 68.3765C23.7619 33.4608 35.8855 9.86043 41.2198 2.42468" stroke="white"/>
<path d="M246.349 144.027L241.985 110.566C241.5 108.626 236.925 71.5363 233.741 61.5873C229.861 49.4638 227.437 45.0994 223.072 38.7952C219.581 33.7518 213.374 25.7018 210.464 23.762" stroke="white"/>
<path d="M261.868 144.027L257.503 110.566C257.018 108.627 252.443 71.5363 249.259 61.5874C245.38 49.4639 244.507 47.0392 238.105 36.3705C229.377 21.8223 211.434 9.21387 208.524 7.27411" stroke="white"/>
<line x1="244.467" y1="133.37" x2="1.99741" y2="161.497" stroke="white"/>
<line x1="244.455" y1="129.492" x2="0.045483" y2="151.799" stroke="white"/>
<line x1="210.4" y1="23.773" x2="30.0023" y2="0.49588" stroke="white"/>
<line x1="211.22" y1="160.548" x2="246.136" y2="144.06" stroke="white"/>
<line x1="246.349" y1="144.012" x2="262.837" y2="144.012" stroke="white"/>
<line x1="262.341" y1="143.485" x2="268.16" y2="93.0511" stroke="white"/>
<line x1="239.56" y1="97.4578" x2="256.048" y2="97.4578" stroke="white"/>
<line x1="232.634" y1="57.712" x2="246.212" y2="53.8325" stroke="white"/>
<line x1="152.271" y1="144.012" x2="246.349" y2="144.012" stroke="white"/>
<line x1="93.1084" y1="150.801" x2="231.801" y2="150.801" stroke="white"/>
<line x1="19.3977" y1="159.53" x2="213.374" y2="159.53" stroke="white"/>
<path d="M183.792 134.328C181.529 122.366 177.876 93.4964 181.367 73.7108C184.859 53.9253 202.866 32.8143 211.434 24.7319" stroke="white"/>
<path d="M139.663 139.178C135.945 128.024 131.613 99.5096 134.328 78.5602C137.044 57.6108 153.888 29.4197 161.97 17.9427" stroke="white"/>
<line x1="133.854" y1="107.157" x2="180.408" y2="108.127" stroke="white"/>
<line x1="91.2091" y1="79.0318" x2="134.04" y2="82.5017" stroke="white"/>
<line x1="24.3216" y1="40.2405" x2="99.0745" y2="51.5056" stroke="white"/>
<line x1="16.501" y1="105.217" x2="91.1817" y2="107.157" stroke="white"/>
<line x1="72.241" y1="153.241" x2="72.241" y2="145.482" stroke="white"/>
<line x1="119.765" y1="147.422" x2="119.765" y2="140.633" stroke="white"/>
<line x1="166.319" y1="142.572" x2="166.319" y2="136.753" stroke="white"/>
<line x1="211.904" y1="136.753" x2="211.904" y2="132.873" stroke="white"/>
</svg>
