<svg width="200" height="145" viewBox="0 0 200 145" fill="none" xmlns="http://www.w3.org/2000/svg">
<path d="M174 68C172.4 68 141.333 74.1667 127.5 77L136.5 125.5" stroke="white"/>
<path d="M4 132L1 129V91L7 79.5L18 44C25.6667 29.6667 49.5 1 83.5 1C117.5 1 141 21.3333 148.5 31.5L166.5 62.5L174.5 68.5L182 103L199.5 117V126L135 144L86.5 139.5L56.5 142L18 126L4 132Z" stroke="white"/>
<path d="M182.5 106L179 114L137.5 126L88.5 127.5L93 116L118.5 121" stroke="white"/>
<path d="M6 83L7 94L18.5 107L65 122L84 123L96 92L121 76.5L122.5 61.5L105 41.5L61.5 24.5L33 33.5L16.5 51" stroke="white"/>
<path d="M42 16.5L71.5 9L108 21L125.5 32H139L117 12.5L88 1" stroke="white"/>
<path d="M99 39.5L108 54.5M77 31L84.5 42M61.5 25L66.5 33" stroke="white"/>
</svg>
