<svg width="268" height="170" viewBox="0 0 268 170" fill="none" xmlns="http://www.w3.org/2000/svg">
<path fill-rule="evenodd" clip-rule="evenodd" d="M232 120L8.74228e-08 120L0 119L232 119L232 120Z" fill="white"/>
<path fill-rule="evenodd" clip-rule="evenodd" d="M268 169L8.74228e-08 169L0 168L268 168L268 169Z" fill="white"/>
<path fill-rule="evenodd" clip-rule="evenodd" d="M108 120L70.9999 1.00003L71.9548 0.703125L108.955 119.703L108 120Z" fill="white"/>
<path fill-rule="evenodd" clip-rule="evenodd" d="M79.0934 26.4895C79.1038 26.4883 79.1277 26.4845 79.158 26.4744L78.8418 25.5257C78.937 25.494 79.0326 25.4905 79.0806 25.4894C79.1431 25.488 79.2131 25.4905 79.286 25.4952C79.4327 25.5046 79.6216 25.5248 79.846 25.5537C80.2964 25.6117 80.9182 25.7086 81.6898 25.8395C83.2345 26.1015 85.3999 26.5032 88.0384 27.0122C93.3164 28.0305 100.5 29.481 108.426 31.1103C124.277 34.369 143.104 38.3442 155.604 41.0111L155.712 41.0341L232.3 98.6003L231.699 99.3997L155.288 41.966C142.788 39.2997 124.027 35.3384 108.224 32.0898C100.3 30.4608 93.1209 29.0112 87.8489 27.9941C85.2125 27.4855 83.0559 27.0855 81.5225 26.8254C80.7551 26.6953 80.1488 26.601 79.7183 26.5455C79.5022 26.5177 79.3375 26.5006 79.2219 26.4932C79.1637 26.4894 79.1254 26.4886 79.1031 26.4891C79.0991 26.4892 79.0959 26.4894 79.0934 26.4895Z" fill="white"/>
<path fill-rule="evenodd" clip-rule="evenodd" d="M231.158 143H228.158V168H231.158V143ZM227.158 142V169H232.158V142H227.158Z" fill="white"/>
<path fill-rule="evenodd" clip-rule="evenodd" d="M121.158 141H118.158V142H121.158V141ZM117.158 140V143H122.158V140H117.158Z" fill="white"/>
<path fill-rule="evenodd" clip-rule="evenodd" d="M231.158 141H228.158V142H231.158V141ZM227.158 140V143H232.158V140H227.158Z" fill="white"/>
<path fill-rule="evenodd" clip-rule="evenodd" d="M121.158 128H118.158V129H121.158V128ZM117.158 127V130H122.158V127H117.158Z" fill="white"/>
<path fill-rule="evenodd" clip-rule="evenodd" d="M231.158 128H228.158V129H231.158V128ZM227.158 127V130H232.158V127H227.158Z" fill="white"/>
<path fill-rule="evenodd" clip-rule="evenodd" d="M121.158 130H118.158V140H121.158V130ZM117.158 129V141H122.158V129H117.158Z" fill="white"/>
<path fill-rule="evenodd" clip-rule="evenodd" d="M231.158 130H228.158V140H231.158V130ZM227.158 129V141H232.158V129H227.158Z" fill="white"/>
<path fill-rule="evenodd" clip-rule="evenodd" d="M121.158 121H118.158V129H121.158V121ZM117.158 120V130H122.158V120H117.158Z" fill="white"/>
<path fill-rule="evenodd" clip-rule="evenodd" d="M231.158 121H228.158V129H231.158V121ZM227.158 120V130H232.158V120H227.158Z" fill="white"/>
<path fill-rule="evenodd" clip-rule="evenodd" d="M154.15 143H107.158V168H154.15V143ZM106.158 142V169H155.15V142H106.158Z" fill="white"/>
<path fill-rule="evenodd" clip-rule="evenodd" d="M233 92H243V168H233V92ZM244 91V169H232V91H244Z" fill="white"/>
<path fill-rule="evenodd" clip-rule="evenodd" d="M220.158 143H217.158V168H220.158V143ZM216.158 142V169H221.158V142H216.158Z" fill="white"/>
<path fill-rule="evenodd" clip-rule="evenodd" d="M220.158 141H217.158V142H220.158V141ZM216.158 140V143H221.158V140H216.158Z" fill="white"/>
<path fill-rule="evenodd" clip-rule="evenodd" d="M110.158 128H107.158V129H110.158V128ZM106.158 127V130H111.158V127H106.158Z" fill="white"/>
<path fill-rule="evenodd" clip-rule="evenodd" d="M220.158 128H217.158V129H220.158V128ZM216.158 127V130H221.158V127H216.158Z" fill="white"/>
<path fill-rule="evenodd" clip-rule="evenodd" d="M220.158 130H217.158V140H220.158V130ZM216.158 129V141H221.158V129H216.158Z" fill="white"/>
<path fill-rule="evenodd" clip-rule="evenodd" d="M110.158 121H107.158V129H110.158V121ZM106.158 120V130H111.158V120H106.158Z" fill="white"/>
<path fill-rule="evenodd" clip-rule="evenodd" d="M220.158 121H217.158V129H220.158V121ZM216.158 120V130H221.158V120H216.158Z" fill="white"/>
<path fill-rule="evenodd" clip-rule="evenodd" d="M106.079 143H89.2578V168H106.079V143ZM88.2578 142V169H107.079V142H88.2578Z" fill="white"/>
<path fill-rule="evenodd" clip-rule="evenodd" d="M40.1455 143.078H22.5776V168.078H40.1455V143.078ZM21.5776 142.078V169.078H41.1455V142.078H21.5776Z" fill="white"/>
<path fill-rule="evenodd" clip-rule="evenodd" d="M209.158 143H206.158V168H209.158V143ZM205.158 142V169H210.158V142H205.158Z" fill="white"/>
<path fill-rule="evenodd" clip-rule="evenodd" d="M209.158 141H206.158V142H209.158V141ZM205.158 140V143H210.158V140H205.158Z" fill="white"/>
<path fill-rule="evenodd" clip-rule="evenodd" d="M99.1584 128H96.1584V129H99.1584V128ZM95.1584 127V130H100.158V127H95.1584Z" fill="white"/>
<path fill-rule="evenodd" clip-rule="evenodd" d="M209.158 128H206.158V129H209.158V128ZM205.158 127V130H210.158V127H205.158Z" fill="white"/>
<path fill-rule="evenodd" clip-rule="evenodd" d="M209.158 130H206.158V140H209.158V130ZM205.158 129V141H210.158V129H205.158Z" fill="white"/>
<path fill-rule="evenodd" clip-rule="evenodd" d="M99.1584 121H96.1584V129H99.1584V121ZM95.1584 120V130H100.158V120H95.1584Z" fill="white"/>
<path fill-rule="evenodd" clip-rule="evenodd" d="M209.158 121H206.158V129H209.158V121ZM205.158 120V130H210.158V120H205.158Z" fill="white"/>
<path fill-rule="evenodd" clip-rule="evenodd" d="M88.1585 143H41.1484V168H88.1585V143ZM40.1484 142V169H89.1585V142H40.1484Z" fill="white"/>
<path fill-rule="evenodd" clip-rule="evenodd" d="M198.158 143H195.158V168H198.158V143ZM194.158 142V169H199.158V142H194.158Z" fill="white"/>
<path fill-rule="evenodd" clip-rule="evenodd" d="M198.158 141H195.158V142H198.158V141ZM194.158 140V143H199.158V140H194.158Z" fill="white"/>
<path fill-rule="evenodd" clip-rule="evenodd" d="M88.1584 128H85.1584V129H88.1584V128ZM84.1584 127V130H89.1584V127H84.1584Z" fill="white"/>
<path fill-rule="evenodd" clip-rule="evenodd" d="M198.158 128H195.158V129H198.158V128ZM194.158 127V130H199.158V127H194.158Z" fill="white"/>
<path fill-rule="evenodd" clip-rule="evenodd" d="M198.158 130H195.158V140H198.158V130ZM194.158 129V141H199.158V129H194.158Z" fill="white"/>
<path fill-rule="evenodd" clip-rule="evenodd" d="M88.1584 121H85.1584V129H88.1584V121ZM84.1584 120V130H89.1584V120H84.1584Z" fill="white"/>
<path fill-rule="evenodd" clip-rule="evenodd" d="M198.158 121H195.158V129H198.158V121ZM194.158 120V130H199.158V120H194.158Z" fill="white"/>
<path fill-rule="evenodd" clip-rule="evenodd" d="M187.158 143H184.158V168H187.158V143ZM183.158 142V169H188.158V142H183.158Z" fill="white"/>
<path fill-rule="evenodd" clip-rule="evenodd" d="M187.158 141H184.158V142H187.158V141ZM183.158 140V143H188.158V140H183.158Z" fill="white"/>
<path fill-rule="evenodd" clip-rule="evenodd" d="M77.1584 128H74.1584V129H77.1584V128ZM73.1584 127V130H78.1584V127H73.1584Z" fill="white"/>
<path fill-rule="evenodd" clip-rule="evenodd" d="M187.158 128H184.158V129H187.158V128ZM183.158 127V130H188.158V127H183.158Z" fill="white"/>
<path fill-rule="evenodd" clip-rule="evenodd" d="M187.158 130H184.158V140H187.158V130ZM183.158 129V141H188.158V129H183.158Z" fill="white"/>
<path fill-rule="evenodd" clip-rule="evenodd" d="M77.1584 121H74.1584V129H77.1584V121ZM73.1584 120V130H78.1584V120H73.1584Z" fill="white"/>
<path fill-rule="evenodd" clip-rule="evenodd" d="M187.158 121H184.158V129H187.158V121ZM183.158 120V130H188.158V120H183.158Z" fill="white"/>
<path fill-rule="evenodd" clip-rule="evenodd" d="M176.158 143H173.158V168H176.158V143ZM172.158 142V169H177.158V142H172.158Z" fill="white"/>
<path fill-rule="evenodd" clip-rule="evenodd" d="M176.158 141H173.158V142H176.158V141ZM172.158 140V143H177.158V140H172.158Z" fill="white"/>
<path fill-rule="evenodd" clip-rule="evenodd" d="M66.1584 128H63.1584V129H66.1584V128ZM62.1584 127V130H67.1584V127H62.1584Z" fill="white"/>
<path fill-rule="evenodd" clip-rule="evenodd" d="M176.158 128H173.158V129H176.158V128ZM172.158 127V130H177.158V127H172.158Z" fill="white"/>
<path fill-rule="evenodd" clip-rule="evenodd" d="M110 130H63V142H110V130ZM62 129V143H111V129H62Z" fill="white"/>
<path fill-rule="evenodd" clip-rule="evenodd" d="M61.9806 130.03H13V141.938H61.9806V130.03ZM12 129.03V142.938H62.9806V129.03H12Z" fill="white"/>
<path fill-rule="evenodd" clip-rule="evenodd" d="M176.158 130H173.158V140H176.158V130ZM172.158 129V141H177.158V129H172.158Z" fill="white"/>
<path fill-rule="evenodd" clip-rule="evenodd" d="M66.1584 121H63.1584V129H66.1584V121ZM62.1584 120V130H67.1584V120H62.1584Z" fill="white"/>
<path fill-rule="evenodd" clip-rule="evenodd" d="M176.158 121H173.158V129H176.158V121ZM172.158 120V130H177.158V120H172.158Z" fill="white"/>
<path fill-rule="evenodd" clip-rule="evenodd" d="M165.158 143H162.158V168H165.158V143ZM161.158 142V169H166.158V142H161.158Z" fill="white"/>
<path fill-rule="evenodd" clip-rule="evenodd" d="M165.158 141H162.158V142H165.158V141ZM161.158 140V143H166.158V140H161.158Z" fill="white"/>
<path fill-rule="evenodd" clip-rule="evenodd" d="M55.1584 128H52.1584V129H55.1584V128ZM51.1584 127V130H56.1584V127H51.1584Z" fill="white"/>
<path fill-rule="evenodd" clip-rule="evenodd" d="M165.158 128H162.158V129H165.158V128ZM161.158 127V130H166.158V127H161.158Z" fill="white"/>
<path fill-rule="evenodd" clip-rule="evenodd" d="M165.158 130H162.158V140H165.158V130ZM161.158 129V141H166.158V129H161.158Z" fill="white"/>
<path fill-rule="evenodd" clip-rule="evenodd" d="M55.1584 121H52.1584V129H55.1584V121ZM51.1584 120V130H56.1584V120H51.1584Z" fill="white"/>
<path fill-rule="evenodd" clip-rule="evenodd" d="M165.158 121H162.158V129H165.158V121ZM161.158 120V130H166.158V120H161.158Z" fill="white"/>
<path fill-rule="evenodd" clip-rule="evenodd" d="M154.158 141H151.158V142H154.158V141ZM150.158 140V143H155.158V140H150.158Z" fill="white"/>
<path fill-rule="evenodd" clip-rule="evenodd" d="M44.1584 128H41.1584V129H44.1584V128ZM40.1584 127V130H45.1584V127H40.1584Z" fill="white"/>
<path fill-rule="evenodd" clip-rule="evenodd" d="M154.158 128H151.158V129H154.158V128ZM150.158 127V130H155.158V127H150.158Z" fill="white"/>
<path fill-rule="evenodd" clip-rule="evenodd" d="M154.158 130H151.158V140H154.158V130ZM150.158 129V141H155.158V129H150.158Z" fill="white"/>
<path fill-rule="evenodd" clip-rule="evenodd" d="M44.1584 121H41.1584V129H44.1584V121ZM40.1584 120V130H45.1584V120H40.1584Z" fill="white"/>
<path fill-rule="evenodd" clip-rule="evenodd" d="M154.158 121H151.158V129H154.158V121ZM150.158 120V130H155.158V120H150.158Z" fill="white"/>
<path fill-rule="evenodd" clip-rule="evenodd" d="M143.158 141H140.158V142H143.158V141ZM139.158 140V143H144.158V140H139.158Z" fill="white"/>
<path fill-rule="evenodd" clip-rule="evenodd" d="M33.1584 128H30.1584V129H33.1584V128ZM29.1584 127V130H34.1584V127H29.1584Z" fill="white"/>
<path fill-rule="evenodd" clip-rule="evenodd" d="M143.158 128H140.158V129H143.158V128ZM139.158 127V130H144.158V127H139.158Z" fill="white"/>
<path fill-rule="evenodd" clip-rule="evenodd" d="M143.158 130H140.158V140H143.158V130ZM139.158 129V141H144.158V129H139.158Z" fill="white"/>
<path fill-rule="evenodd" clip-rule="evenodd" d="M33.1584 121H30.1584V129H33.1584V121ZM29.1584 120V130H34.1584V120H29.1584Z" fill="white"/>
<path fill-rule="evenodd" clip-rule="evenodd" d="M143.158 121H140.158V129H143.158V121ZM139.158 120V130H144.158V120H139.158Z" fill="white"/>
<path fill-rule="evenodd" clip-rule="evenodd" d="M132.158 141H129.158V142H132.158V141ZM128.158 140V143H133.158V140H128.158Z" fill="white"/>
<path fill-rule="evenodd" clip-rule="evenodd" d="M22.1584 128H19.1584V129H22.1584V128ZM18.1584 127V130H23.1584V127H18.1584Z" fill="white"/>
<path fill-rule="evenodd" clip-rule="evenodd" d="M132.158 128H129.158V129H132.158V128ZM128.158 127V130H133.158V127H128.158Z" fill="white"/>
<path fill-rule="evenodd" clip-rule="evenodd" d="M132.158 130H129.158V140H132.158V130ZM128.158 129V141H133.158V129H128.158Z" fill="white"/>
<path fill-rule="evenodd" clip-rule="evenodd" d="M22.1584 121H19.1584V129H22.1584V121ZM18.1584 120V130H23.1584V120H18.1584Z" fill="white"/>
<path fill-rule="evenodd" clip-rule="evenodd" d="M132.158 121H129.158V129H132.158V121ZM128.158 120V130H133.158V120H128.158Z" fill="white"/>
</svg>
