<svg width="242" height="231" viewBox="0 0 242 231" fill="none" xmlns="http://www.w3.org/2000/svg">
<rect x="2.77124" y="209.145" width="238.694" height="21.3548" rx="10.6774" stroke="white"/>
<path d="M19.7796 219.823C19.7796 222.953 17.1075 225.532 13.7594 225.532C10.4113 225.532 7.73926 222.953 7.73926 219.823C7.73926 216.692 10.4113 214.113 13.7594 214.113C17.1075 214.113 19.7796 216.692 19.7796 219.823Z" stroke="white"/>
<circle cx="31.1466" cy="197.157" r="8.50403" stroke="white"/>
<circle cx="31.1467" cy="197.157" r="6.64113" stroke="white"/>
<path d="M236.497 219.823C236.497 222.953 233.825 225.532 230.477 225.532C227.129 225.532 224.457 222.953 224.457 219.823C224.457 216.692 227.129 214.113 230.477 214.113C233.825 214.113 236.497 216.692 236.497 219.823Z" stroke="white"/>
<rect x="15.812" y="186.169" width="30.6694" height="22.5968" rx="6.5" stroke="white"/>
<rect x="24.5056" y="183.064" width="13.2823" height="2.72581" stroke="white"/>
<rect x="33.1987" y="166.919" width="1.48387" height="15.7661" stroke="white"/>
<rect x="30.7151" y="166.919" width="1.48387" height="15.7661" stroke="white"/>
<rect x="116.409" y="137.113" width="9.55645" height="55.5081" rx="0.5" stroke="white"/>
<rect x="117.65" y="80.6049" width="7.07258" height="56.129" stroke="white"/>
<rect x="77.9084" y="145.806" width="10.7984" height="36.2581" stroke="white"/>
<path d="M80.3923 15.4032H86.223V122.056C86.223 123.989 84.656 125.556 82.723 125.556H80.3923V15.4032Z" stroke="white"/>
<rect x="81.0132" y="183.064" width="4.58871" height="13.9032" stroke="white"/>
<rect x="44.3765" y="61.9757" width="32.5323" height="97.1129" stroke="white"/>
<rect x="63.0054" y="81.2258" width="8.93548" height="66.0645" stroke="white"/>
<rect x="77.2874" y="11.0565" width="12.0403" height="3.96774" stroke="white"/>
<rect x="80.3923" y="0.5" width="5.83064" height="10.1774" stroke="white"/>
<rect x="118.892" y="72.5322" width="4.58871" height="7.69355" stroke="white"/>
<path d="M91.0699 186.911L94.7957 208.335H131.433V193.121H116.84L101.316 175.423L99.1425 93.1451C99.039 89.8333 99.3288 82.6507 101.316 80.4153C103.8 77.6209 108.768 77.9314 112.493 77.6209C115.474 77.3725 116.219 78.3454 119.324 78.8628C123.05 79.4838 125.223 76.9999 125.223 75.758C125.223 72.849 124.913 70.4612 122.118 70.1693C115.184 69.4448 105.849 68.7411 99.1425 71.7217C92.4361 74.7024 90.9664 87.2459 91.0699 93.1451V186.911Z" fill="#070F12" stroke="white"/>
<circle cx="121.187" cy="74.8266" r="1.67339" stroke="white"/>
<circle cx="105.663" cy="188.464" r="1.67339" fill="black" stroke="white"/>
<path d="M77.0979 145.306H90.7592V117.052C88.8963 117.052 88.5858 126.056 83.3076 126.056H77.0979V145.306Z" stroke="white"/>
<path d="M32.1264 66.8084L43.6866 64.2708V97.8237L32.1264 66.8084Z" stroke="white"/>
<path d="M12.2118 81.3469C17.1796 76.8759 28.6682 73.6883 33.9465 72.6533L33.3248 70.7904C23.0795 73.5848 14.9477 77.3106 11.2774 80.4154C10.2173 81.3122 1.65585 88.1775 1.03425 104.944C0.239979 126.367 13.4487 136.923 21.2129 138.786C28.7235 140.588 39.2209 141.374 43.8782 141.27V139.718C40.4629 140.132 31.7723 140.028 21.8368 137.544C9.41749 134.44 1.47079 119.847 2.27637 104.944C2.89733 93.4557 6.00217 86.9356 12.2118 81.3469Z" stroke="white" stroke-opacity="0.6"/>
<path d="M35.1832 76.379C28.3524 79.1734 12.828 86.004 14.0701 111.774C14.8889 128.761 35.3899 136.82 44.187 136.302" stroke="white" stroke-opacity="0.4" stroke-width="2"/>
<rect x="63.6262" y="86.8146" width="23.8387" height="12.0403" fill="#070F12" stroke="white"/>
</svg>
