<svg width="211" height="197" viewBox="0 0 211 197" fill="none" xmlns="http://www.w3.org/2000/svg">
<path d="M182.62 142.68L166.98 181.78L68.0799 192.36L73.1399 196.5H202.86L209.76 177.64L202.86 142.68H182.62ZM182.62 142.68L180.839 121.98M180.839 121.98L197.34 140.38C199.18 131.027 203.044 111.86 203.78 110.02L177.56 70.46L97.5199 11.12H81.4199L180.839 121.98ZM47.3799 4.68V11.12H100.28L124.66 6.52V2.84H104.88V1H53.8199L47.3799 4.68Z" stroke="white"/>
<path d="M202.4 114.62V141.76M98.8999 189.14L124.2 178.1L133.86 180.426M146 184L133.86 180.426M170.5 172.58H150.65H133.86V180.426" stroke="white"/>
<path d="M25.76 51.6V9.74L32.2 14.8V51.6H25.76Z" stroke="white"/>
<path d="M32.2 20.32L57.9599 27.22L82.34 12.5L86.0199 16.64L66.2399 29.06L93.8399 24.92L99.3599 30.9L68.0799 34.58L32.2 27.22M123.74 58.5H113.16V62.64V112.5L117.5 116L119.6 179.94M133 68.5V112.5L129.5 116L128.34 179.02" stroke="white"/>
<path d="M119.14 178.1C118.772 178.1 101.813 178.1 93.38 178.1V173.04H81.42L70.84 177.18L69.92 181.32L38.18 184.08L26.22 196.04H32.66L39.56 190.06L83.72 186.84L86.48 190.06M0 196.04H71.76" stroke="white"/>
<path d="M113 112.5H133" stroke="white"/>
<path d="M117 116H130" stroke="white"/>
</svg>
