<svg width="256" height="178" viewBox="0 0 256 178" fill="none" xmlns="http://www.w3.org/2000/svg">
<line x1="17.8355" y1="145.482" x2="72.9207" y2="176.838" stroke="white"/>
<line x1="-1.421e-09" y1="145.733" x2="18.2743" y2="145.733" stroke="white"/>
<line x1="115.417" y1="145.733" x2="254.879" y2="145.733" stroke="white"/>
<line x1="72.5612" y1="176.786" x2="127.646" y2="164.074" stroke="white"/>
<line x1="12.9506" y1="113.489" x2="16.3405" y2="120.269" stroke="white"/>
<line x1="12.8766" y1="113.554" x2="33.1889" y2="52.779" stroke="white"/>
<line x1="32.5523" y1="53.422" x2="112.355" y2="28.4891" stroke="white"/>
<line x1="79.9496" y1="56.9923" x2="72.3224" y2="120.552" stroke="white"/>
<line x1="70.6297" y1="120.53" x2="68.0873" y2="154.429" stroke="white"/>
<line x1="16.4005" y1="120.126" x2="28.265" y2="109.109" stroke="white"/>
<line x1="28.1398" y1="109.293" x2="46.7841" y2="61.8346" stroke="white"/>
<line x1="46.0628" y1="62.0665" x2="112.401" y2="47.969" stroke="white"/>
<line x1="118.305" y1="28.484" x2="220.848" y2="0.517612" stroke="white"/>
<line x1="221.156" y1="0.531866" x2="227.935" y2="3.07426" stroke="white"/>
<line x1="228.146" y1="3.2252" x2="255.265" y2="36.2763" stroke="white"/>
<line x1="172.055" y1="54.3728" x2="254.771" y2="36.1053" stroke="white"/>
<line x1="172.48" y1="54.2863" x2="161.9" y2="62.9425" stroke="white"/>
<line x1="162.553" y1="63.3626" x2="118.485" y2="67.6" stroke="white"/>
<line x1="87.5799" y1="57.8067" x2="84.19" y2="121.367" stroke="white"/>
<line x1="85.8848" y1="122.21" x2="84.1898" y2="160.346" stroke="white"/>
<line x1="111.306" y1="63.7725" x2="104.526" y2="119.705" stroke="white"/>
<line x1="118.935" y1="64.5982" x2="114.698" y2="119.683" stroke="white"/>
<line x1="116.394" y1="120.518" x2="114.699" y2="153.569" stroke="white"/>
<line x1="102.831" y1="119.705" x2="99.4415" y2="147.672" stroke="white"/>
<line x1="129.688" y1="35.1499" x2="227.604" y2="3.06728" stroke="white"/>
<path d="M26.9103 110.165V136.171H20.9781L18.012 145.493M35.1058 91.4097L45.1308 124.306M30.2968 103.432L41.3576 140.943M41.9798 141.729L46.8258 115.832L50.2156 88.7126L53.6055 60.3225M61.2327 59.4751L57.8428 115.832L61.2327 142.527M29.8159 105.356L35.385 137.018L44.2834 143.374L46.8258 146.34L68.8599 142.527M112.504 28.9663V48.458L162.081 63.2887" stroke="white"/>
<path d="M172.644 54.3802L129.877 34.8986L113.352 48.458L122.674 37.0173V31.5087L112.05 28.4114" stroke="white"/>
<path d="M67.1648 152.696L71.4021 162.866L88.7752 159.476L94.7074 151.001L101.911 149.73L107.419 152.696L108.691 155.662L121.403 153.12L126.487 154.391L131.148 160.323L127.335 164.561" stroke="white"/>
</svg>
